<?xml version="1.0" encoding="utf-8"?>
<!-- Generator: Adobe Illustrator 24.2.1, SVG Export Plug-In . SVG Version: 6.00 Build 0)  -->
<svg version="1.1" id="Layer_1" xmlns="http://www.w3.org/2000/svg" xmlns:xlink="http://www.w3.org/1999/xlink" x="0px" y="0px"
	 viewBox="0 0 48 48" style="enable-background:new 0 0 48 48;" xml:space="preserve">
<style type="text/css">
	.st0{fill:#CA0000;}
</style>
<path class="st0" d="M10,6c-2.2,0-4,1.8-4,4v28c0,2.2,1.8,4,4,4h13.2h5.6H38c2.2,0,4-1.8,4-4V10c0-2.2-1.8-4-4-4H10z M10,10h28l0,28
	h-9.2v-7.9h4.7l0.7-5.4h-5.4v-3.5c0-1.6,0.4-2.6,2.7-2.6h2.9v-4.9c-1.4-0.1-2.8-0.2-4.2-0.2c-4.1,0-7,2.5-7,7.2v4h-4.7v5.4h4.7V38
	H10V10z"/>
</svg>
