<?xml version="1.0" encoding="utf-8"?>
<!-- Generator: Adobe Illustrator 24.2.1, SVG Export Plug-In . SVG Version: 6.00 Build 0)  -->
<svg version="1.1" id="Layer_1" xmlns="http://www.w3.org/2000/svg" xmlns:xlink="http://www.w3.org/1999/xlink" x="0px" y="0px"
	 viewBox="0 0 48 48" style="enable-background:new 0 0 48 48;" xml:space="preserve">
<style type="text/css">
	.st0{fill:#FFFFFF;}
</style>
<path class="st0" d="M24,8c0,0-12.5,0-15.6,0.8c-1.7,0.5-3.1,1.8-3.5,3.5C4,15.5,4,24,4,24s0,8.5,0.8,11.6c0.5,1.7,1.8,3.1,3.5,3.5
	C11.5,40,24,40,24,40s12.5,0,15.6-0.8c1.7-0.5,3.1-1.8,3.5-3.5C44,32.5,44,24,44,24s0-8.5-0.8-11.6c-0.5-1.7-1.8-3.1-3.5-3.5
	C36.5,8,24,8,24,8z M24,12c5.8,0,13,0.3,14.6,0.7c0.3,0.1,0.6,0.4,0.7,0.7C39.8,15.2,40,20.7,40,24s-0.2,8.8-0.7,10.6
	c-0.1,0.3-0.4,0.6-0.7,0.7C37,35.7,29.8,36,24,36c-5.8,0-13-0.3-14.6-0.7c-0.3-0.1-0.6-0.4-0.7-0.7C8.2,32.8,8,27.3,8,24
	s0.2-8.8,0.7-10.6c0.1-0.3,0.4-0.6,0.7-0.7C11,12.3,18.2,12,24,12z M20,17.1v13.9L32,24L20,17.1z"/>
</svg>
